# xmcd
#
# Track frame offsets:
#	150
#	14731
#	30374
#	45004
#	62537
#	80502
#	102467
#	119055
#	138100
#	154961
#
# Disc length: 2278 seconds
#
# Revision: 0
# Processed by: cddbd v1.5.2PL0 Copyright (c) Steve Scherf et al.
# Submitted via: EasyCDDAExtractor 12.0.0.1
#
DISCID=7a08e40a
DTITLE=Alejandra Guzman - Unico
DYEAR=2009
DGENRE=Latin
TTITLE0=No Voy A Esperar
TTITLE1=Mentiras Piadosas
TTITLE2=Rezo
TTITLE3=Amor En Suspenso (Crocodile Tears)
TTITLE4=Ahogada En Tu Tristeza
TTITLE5=Algo Que No Esta
TTITLE6=Ella
TTITLE7=Por Que No Estas Aqui
TTITLE8=Unico (Il Mio Amore Unico)
TTITLE9=No Importa La Hora
EXTD=
EXTT0=
EXTT1=
EXTT2=
EXTT3=
EXTT4=
EXTT5=
EXTT6=
EXTT7=
EXTT8=
EXTT9=
PLAYORDER=
